<mxfile host="app.diagrams.net" agent="Mozilla/5.0 (Windows NT 10.0; Win64; x64) AppleWebKit/537.36 (KHTML, like Gecko) Chrome/126.0.0.0 YaBrowser/24.7.0.0 Safari/537.36" version="24.8.2">
  <diagram name="Page-1" id="58cdce13-f638-feb5-8d6f-7d28b1aa9fa0">
    <mxGraphModel dx="1395" dy="659" grid="1" gridSize="10" guides="1" tooltips="1" connect="1" arrows="1" fold="1" page="1" pageScale="1" pageWidth="1100" pageHeight="850" background="none" math="0" shadow="0">
      <root>
        <mxCell id="0" />
        <mxCell id="1" parent="0" />
        <mxCell id="382b91b5511bd0f7-1" value="" style="ellipse;html=1;shape=startState;fillColor=#000000;strokeColor=#ff0000;rounded=1;shadow=0;comic=0;labelBackgroundColor=none;fontFamily=Verdana;fontSize=12;fontColor=#000000;align=center;direction=south;" parent="1" vertex="1">
          <mxGeometry x="512.5" y="40" width="30" height="30" as="geometry" />
        </mxCell>
        <mxCell id="382b91b5511bd0f7-6" value="Сreated" style="rounded=1;whiteSpace=wrap;html=1;arcSize=24;fillColor=#ffffc0;strokeColor=#ff0000;shadow=0;comic=0;labelBackgroundColor=none;fontFamily=Verdana;fontSize=12;fontColor=#000000;align=center;" parent="1" vertex="1">
          <mxGeometry x="460" y="150" width="135" height="60" as="geometry" />
        </mxCell>
        <mxCell id="382b91b5511bd0f7-7" value="&lt;div&gt;In progress&lt;/div&gt;" style="rounded=1;whiteSpace=wrap;html=1;arcSize=24;fillColor=#ffffc0;strokeColor=#ff0000;shadow=0;comic=0;labelBackgroundColor=none;fontFamily=Verdana;fontSize=12;fontColor=#000000;align=center;" parent="1" vertex="1">
          <mxGeometry x="580" y="300" width="120" height="50" as="geometry" />
        </mxCell>
        <mxCell id="382b91b5511bd0f7-9" value="Canceled&lt;div&gt;entry: удалить проложенный путь&lt;/div&gt;" style="rounded=1;whiteSpace=wrap;html=1;arcSize=24;fillColor=#ffffc0;strokeColor=#ff0000;shadow=0;comic=0;labelBackgroundColor=none;fontFamily=Verdana;fontSize=12;fontColor=#000000;align=center;" parent="1" vertex="1">
          <mxGeometry x="280" y="450" width="180" height="60" as="geometry" />
        </mxCell>
        <mxCell id="2a3bc250acf0617d-9" style="edgeStyle=orthogonalEdgeStyle;html=1;labelBackgroundColor=none;endArrow=open;endSize=8;strokeColor=#ff0000;fontFamily=Verdana;fontSize=12;align=left;exitX=1;exitY=0.5;exitDx=0;exitDy=0;" parent="1" source="382b91b5511bd0f7-1" target="382b91b5511bd0f7-6" edge="1">
          <mxGeometry relative="1" as="geometry" />
        </mxCell>
        <mxCell id="24f968d109e7d6b4-3" value="" style="ellipse;html=1;shape=endState;fillColor=#000000;strokeColor=#ff0000;rounded=1;shadow=0;comic=0;labelBackgroundColor=none;fontFamily=Verdana;fontSize=12;fontColor=#000000;align=center;" parent="1" vertex="1">
          <mxGeometry x="625" y="750" width="30" height="30" as="geometry" />
        </mxCell>
        <mxCell id="1Mzbr1FjEaODp7JfejLL-1" style="edgeStyle=elbowEdgeStyle;html=1;labelBackgroundColor=none;endArrow=open;endSize=8;strokeColor=#ff0000;fontFamily=Verdana;fontSize=12;align=left;exitX=0;exitY=0.5;exitDx=0;exitDy=0;entryX=0.5;entryY=0;entryDx=0;entryDy=0;" parent="1" source="382b91b5511bd0f7-6" edge="1" target="382b91b5511bd0f7-9">
          <mxGeometry relative="1" as="geometry">
            <mxPoint x="479.52" y="177.01999999999998" as="sourcePoint" />
            <mxPoint x="385.48" y="430" as="targetPoint" />
            <Array as="points">
              <mxPoint x="370" y="320" />
            </Array>
          </mxGeometry>
        </mxCell>
        <mxCell id="1Mzbr1FjEaODp7JfejLL-2" style="edgeStyle=elbowEdgeStyle;html=1;labelBackgroundColor=none;endArrow=open;endSize=8;strokeColor=#ff0000;fontFamily=Verdana;fontSize=12;align=left;exitX=0;exitY=0.5;exitDx=0;exitDy=0;entryX=1;entryY=0.5;entryDx=0;entryDy=0;" parent="1" edge="1" target="382b91b5511bd0f7-9" source="382b91b5511bd0f7-7">
          <mxGeometry relative="1" as="geometry">
            <mxPoint x="715" y="360" as="sourcePoint" />
            <mxPoint x="515" y="460" as="targetPoint" />
            <Array as="points">
              <mxPoint x="535" y="400" />
            </Array>
          </mxGeometry>
        </mxCell>
        <mxCell id="1Mzbr1FjEaODp7JfejLL-5" style="edgeStyle=elbowEdgeStyle;html=1;labelBackgroundColor=none;endArrow=open;endSize=8;strokeColor=#ff0000;fontFamily=Verdana;fontSize=12;align=left;entryX=0.5;entryY=0;entryDx=0;entryDy=0;exitX=1;exitY=0.5;exitDx=0;exitDy=0;" parent="1" source="382b91b5511bd0f7-6" target="382b91b5511bd0f7-7" edge="1">
          <mxGeometry relative="1" as="geometry">
            <mxPoint x="625" y="29.99999999999997" as="sourcePoint" />
            <mxPoint x="775.04" y="67.97999999999999" as="targetPoint" />
            <Array as="points">
              <mxPoint x="640" y="240" />
            </Array>
          </mxGeometry>
        </mxCell>
        <mxCell id="1Mzbr1FjEaODp7JfejLL-25" value="Trigger: Пользователь перестроил маршрут" style="shape=note;size=15;align=left;spacingLeft=10;html=1;whiteSpace=wrap;" parent="1" vertex="1">
          <mxGeometry x="460" y="530" width="160" height="40" as="geometry" />
        </mxCell>
        <mxCell id="1Mzbr1FjEaODp7JfejLL-26" value="" style="edgeStyle=none;endArrow=none;exitX=0;exitY=0;dashed=1;html=1;rounded=0;exitDx=67.5;exitDy=0;exitPerimeter=0;" parent="1" source="1Mzbr1FjEaODp7JfejLL-25" edge="1">
          <mxGeometry x="1" relative="1" as="geometry">
            <mxPoint x="590" y="500" as="targetPoint" />
            <Array as="points" />
          </mxGeometry>
        </mxCell>
        <mxCell id="1oAe2iVUqEWJbvpxsJwX-11" value="&lt;div&gt;Closed&amp;nbsp;&lt;/div&gt;&lt;div&gt;exit: отправить уведомление достижении точки назначения&lt;/div&gt;" style="rounded=1;whiteSpace=wrap;html=1;arcSize=24;fillColor=#ffffc0;strokeColor=#ff0000;shadow=0;comic=0;labelBackgroundColor=none;fontFamily=Verdana;fontSize=12;fontColor=#000000;align=center;" vertex="1" parent="1">
          <mxGeometry x="570" y="590" width="140" height="90" as="geometry" />
        </mxCell>
        <mxCell id="1oAe2iVUqEWJbvpxsJwX-17" style="edgeStyle=elbowEdgeStyle;html=1;labelBackgroundColor=none;endArrow=open;endSize=8;strokeColor=#ff0000;fontFamily=Verdana;fontSize=12;align=left;entryX=0.5;entryY=0;entryDx=0;entryDy=0;exitX=0.5;exitY=1;exitDx=0;exitDy=0;" edge="1" parent="1" source="382b91b5511bd0f7-7" target="1oAe2iVUqEWJbvpxsJwX-11">
          <mxGeometry relative="1" as="geometry">
            <mxPoint x="635" y="370" as="sourcePoint" />
            <mxPoint x="649.9999999999998" y="510" as="targetPoint" />
            <Array as="points" />
          </mxGeometry>
        </mxCell>
        <mxCell id="1oAe2iVUqEWJbvpxsJwX-18" style="edgeStyle=elbowEdgeStyle;html=1;labelBackgroundColor=none;endArrow=open;endSize=8;strokeColor=#ff0000;fontFamily=Verdana;fontSize=12;align=left;entryX=0.5;entryY=0;entryDx=0;entryDy=0;exitX=0.5;exitY=1;exitDx=0;exitDy=0;" edge="1" parent="1" source="1oAe2iVUqEWJbvpxsJwX-11" target="24f968d109e7d6b4-3">
          <mxGeometry relative="1" as="geometry">
            <mxPoint x="669.9999999999998" y="670" as="sourcePoint" />
            <mxPoint x="679.9999999999998" y="765" as="targetPoint" />
            <Array as="points">
              <mxPoint x="640" y="710" />
            </Array>
          </mxGeometry>
        </mxCell>
        <mxCell id="1oAe2iVUqEWJbvpxsJwX-19" value="Trigger: Пользователь отменил маршрут" style="shape=note;size=15;align=left;spacingLeft=10;html=1;whiteSpace=wrap;" vertex="1" parent="1">
          <mxGeometry x="400" y="240" width="165" height="40" as="geometry" />
        </mxCell>
        <mxCell id="1oAe2iVUqEWJbvpxsJwX-20" value="" style="edgeStyle=none;endArrow=none;exitX=0.5;exitY=1;dashed=1;html=1;rounded=0;exitDx=0;exitDy=0;exitPerimeter=0;" edge="1" parent="1" source="1oAe2iVUqEWJbvpxsJwX-19">
          <mxGeometry x="1" relative="1" as="geometry">
            <mxPoint x="370" y="350" as="targetPoint" />
            <Array as="points" />
            <mxPoint x="475" y="310" as="sourcePoint" />
          </mxGeometry>
        </mxCell>
        <mxCell id="1oAe2iVUqEWJbvpxsJwX-21" value="" style="edgeStyle=none;endArrow=none;exitX=0.5;exitY=1;dashed=1;html=1;rounded=0;exitDx=0;exitDy=0;exitPerimeter=0;" edge="1" parent="1" source="1oAe2iVUqEWJbvpxsJwX-19">
          <mxGeometry x="1" relative="1" as="geometry">
            <mxPoint x="535" y="340" as="targetPoint" />
            <Array as="points" />
            <mxPoint x="305" y="380" as="sourcePoint" />
          </mxGeometry>
        </mxCell>
        <mxCell id="1oAe2iVUqEWJbvpxsJwX-22" value="Пользователь начал движение по маршруту" style="shape=note;size=15;align=left;spacingLeft=10;html=1;whiteSpace=wrap;" vertex="1" parent="1">
          <mxGeometry x="700" y="180" width="150" height="40" as="geometry" />
        </mxCell>
        <mxCell id="1oAe2iVUqEWJbvpxsJwX-23" value="" style="edgeStyle=none;endArrow=none;exitX=0.5;exitY=1;dashed=1;html=1;rounded=0;exitDx=0;exitDy=0;exitPerimeter=0;" edge="1" parent="1" source="1oAe2iVUqEWJbvpxsJwX-22">
          <mxGeometry x="1" relative="1" as="geometry">
            <mxPoint x="640" y="260" as="targetPoint" />
            <Array as="points" />
            <mxPoint x="720" y="430" as="sourcePoint" />
          </mxGeometry>
        </mxCell>
        <mxCell id="1oAe2iVUqEWJbvpxsJwX-24" style="edgeStyle=elbowEdgeStyle;html=1;labelBackgroundColor=none;endArrow=open;endSize=8;strokeColor=#ff0000;fontFamily=Verdana;fontSize=12;align=left;exitX=0.5;exitY=1;exitDx=0;exitDy=0;entryX=0;entryY=0.5;entryDx=0;entryDy=0;" edge="1" parent="1" source="382b91b5511bd0f7-9" target="24f968d109e7d6b4-3">
          <mxGeometry relative="1" as="geometry">
            <mxPoint x="450" y="550" as="sourcePoint" />
            <mxPoint x="590" y="710" as="targetPoint" />
            <Array as="points">
              <mxPoint x="370" y="640" />
            </Array>
          </mxGeometry>
        </mxCell>
        <mxCell id="1oAe2iVUqEWJbvpxsJwX-29" value="&lt;div&gt;Closed&amp;nbsp;&lt;/div&gt;&lt;div&gt;exit: отправить уведомление о досрочном завершении&lt;/div&gt;" style="rounded=1;whiteSpace=wrap;html=1;arcSize=24;fillColor=#ffffc0;strokeColor=#ff0000;shadow=0;comic=0;labelBackgroundColor=none;fontFamily=Verdana;fontSize=12;fontColor=#000000;align=center;" vertex="1" parent="1">
          <mxGeometry x="770" y="490" width="140" height="90" as="geometry" />
        </mxCell>
        <mxCell id="1oAe2iVUqEWJbvpxsJwX-30" style="edgeStyle=elbowEdgeStyle;html=1;labelBackgroundColor=none;endArrow=open;endSize=8;strokeColor=#ff0000;fontFamily=Verdana;fontSize=12;align=left;entryX=0.5;entryY=0;entryDx=0;entryDy=0;exitX=1;exitY=0.5;exitDx=0;exitDy=0;" edge="1" parent="1" source="382b91b5511bd0f7-7" target="1oAe2iVUqEWJbvpxsJwX-29">
          <mxGeometry relative="1" as="geometry">
            <mxPoint x="730" y="360" as="sourcePoint" />
            <mxPoint x="730" y="600" as="targetPoint" />
            <Array as="points">
              <mxPoint x="840" y="410" />
            </Array>
          </mxGeometry>
        </mxCell>
        <mxCell id="1oAe2iVUqEWJbvpxsJwX-31" style="edgeStyle=elbowEdgeStyle;html=1;labelBackgroundColor=none;endArrow=open;endSize=8;strokeColor=#ff0000;fontFamily=Verdana;fontSize=12;align=left;entryX=1;entryY=0.5;entryDx=0;entryDy=0;exitX=0.5;exitY=1;exitDx=0;exitDy=0;" edge="1" parent="1" source="1oAe2iVUqEWJbvpxsJwX-29" target="24f968d109e7d6b4-3">
          <mxGeometry relative="1" as="geometry">
            <mxPoint x="839.58" y="610" as="sourcePoint" />
            <mxPoint x="839.58" y="680" as="targetPoint" />
            <Array as="points">
              <mxPoint x="839.58" y="640" />
            </Array>
          </mxGeometry>
        </mxCell>
        <mxCell id="1oAe2iVUqEWJbvpxsJwX-32" style="edgeStyle=elbowEdgeStyle;html=1;labelBackgroundColor=none;endArrow=open;endSize=8;strokeColor=#ff0000;fontFamily=Verdana;fontSize=12;align=left;exitX=1;exitY=0.75;exitDx=0;exitDy=0;entryX=0.25;entryY=1;entryDx=0;entryDy=0;" edge="1" parent="1" source="382b91b5511bd0f7-9" target="382b91b5511bd0f7-7">
          <mxGeometry relative="1" as="geometry">
            <mxPoint x="380" y="520" as="sourcePoint" />
            <mxPoint x="635" y="775" as="targetPoint" />
            <Array as="points">
              <mxPoint x="610" y="430" />
            </Array>
          </mxGeometry>
        </mxCell>
        <mxCell id="1oAe2iVUqEWJbvpxsJwX-33" value="Пользователь не доехал&lt;div&gt;до места назначения&lt;/div&gt;" style="shape=note;size=15;align=left;spacingLeft=10;html=1;whiteSpace=wrap;" vertex="1" parent="1">
          <mxGeometry x="900" y="290" width="160" height="55" as="geometry" />
        </mxCell>
        <mxCell id="1oAe2iVUqEWJbvpxsJwX-34" value="" style="edgeStyle=none;endArrow=none;exitX=0.5;exitY=1;dashed=1;html=1;rounded=0;exitDx=0;exitDy=0;exitPerimeter=0;" edge="1" parent="1" source="1oAe2iVUqEWJbvpxsJwX-33">
          <mxGeometry x="1" relative="1" as="geometry">
            <mxPoint x="840" y="390" as="targetPoint" />
            <Array as="points" />
            <mxPoint x="975" y="350" as="sourcePoint" />
          </mxGeometry>
        </mxCell>
      </root>
    </mxGraphModel>
  </diagram>
</mxfile>
